<?xml version="1.0" encoding="UTF-8" standalone="no"?>
<!-- Created with Inkscape (http://www.inkscape.org/) -->

<svg
   xmlns:dc="http://purl.org/dc/elements/1.1/"
   xmlns:cc="http://creativecommons.org/ns#"
   xmlns:rdf="http://www.w3.org/1999/02/22-rdf-syntax-ns#"
   xmlns:svg="http://www.w3.org/2000/svg"
   xmlns="http://www.w3.org/2000/svg"
   xmlns:sodipodi="http://sodipodi.sourceforge.net/DTD/sodipodi-0.dtd"
   xmlns:inkscape="http://www.inkscape.org/namespaces/inkscape"
   width="744.09448819"
   height="1052.3622047"
   id="svg2"
   version="1.1"
   inkscape:version="0.48.5 r10040"
   sodipodi:docname="Новый документ 1">
  <sodipodi:namedview
     id="base"
     pagecolor="#ffffff"
     bordercolor="#666666"
     borderopacity="1.0"
     inkscape:pageopacity="0.0"
     inkscape:pageshadow="2"
     inkscape:zoom="2.8"
     inkscape:cx="250.47313"
     inkscape:cy="520.8111"
     inkscape:document-units="px"
     inkscape:current-layer="layer1"
     showgrid="false"
     showguides="false"
     inkscape:guide-bbox="true"
     inkscape:object-paths="true"
     inkscape:window-width="1920"
     inkscape:window-height="1058"
     inkscape:window-x="1920"
     inkscape:window-y="0"
     inkscape:window-maximized="1"
     inkscape:snap-intersection-paths="true">
    <sodipodi:guide
       orientation="0.70710678,0.70710678"
       position="221.78571,500.71429"
       id="guide4383" />
    <sodipodi:guide
       orientation="0.70710678,0.70710678"
       position="208.57143,549.64286"
       id="guide4385" />
    <sodipodi:guide
       id="guide4427"
       position="259.35667,471.23616"
       orientation="1,0" />
    <sodipodi:guide
       id="guide4431"
       position="140.71429,605"
       orientation="0,1" />
  </sodipodi:namedview>
  <defs
     id="defs4">
    <marker
       inkscape:stockid="Arrow2Lend"
       orient="auto"
       refY="0.0"
       refX="0.0"
       id="Arrow2Lend"
       style="overflow:visible;">
      <path
         id="path3782"
         style="fill-rule:evenodd;stroke-width:0.62500000;stroke-linejoin:round;"
         d="M 8.7185878,4.0337352 L -2.2072895,0.016013256 L 8.7185884,-4.0017078 C 6.9730900,-1.6296469 6.9831476,1.6157441 8.7185878,4.0337352 z "
         transform="scale(1.1) rotate(180) translate(1,0)" />
    </marker>
  </defs>
  <metadata
     id="metadata7">
    <rdf:RDF>
      <cc:Work
         rdf:about="">
        <dc:format>image/svg+xml</dc:format>
        <dc:type
           rdf:resource="http://purl.org/dc/dcmitype/StillImage" />
        <dc:title></dc:title>
      </cc:Work>
    </rdf:RDF>
  </metadata>
  <g
     inkscape:label="Layer 1"
     inkscape:groupmode="layer"
     id="layer1">
    <path
       style="fill:#b4b4b4;stroke:none;stroke-width:0;stroke-linecap:butt;stroke-linejoin:miter;stroke-opacity:1;stroke-miterlimit:4;stroke-dasharray:none;fill-opacity:1"
       d="m 117.14286,589.50504 0,-142.14286 142.21381,142.14286 z"
       id="path4489"
       inkscape:connector-curvature="0" />
    <path
       style="fill:none;stroke:#000000;stroke-width:1px;stroke-linecap:butt;stroke-linejoin:miter;stroke-opacity:1;marker-end:url(#Arrow2Lend)"
       d="m 108.92857,589.50504 186.42858,0"
       id="path2985"
       inkscape:connector-curvature="0"
       sodipodi:nodetypes="cc" />
    <path
       style="fill:none;stroke:#000000;stroke-width:1px;stroke-linecap:butt;stroke-linejoin:miter;stroke-opacity:1;marker-end:url(#Arrow2Lend)"
       d="m 117.14286,599.86219 0,-187.50001"
       id="path2987"
       inkscape:connector-curvature="0"
       sodipodi:nodetypes="cc" />
    <path
       style="fill:none;stroke:#000000;stroke-width:1px;stroke-linecap:butt;stroke-linejoin:miter;stroke-opacity:1"
       d="m 117.14286,447.36218 142.5,142.14286"
       id="path4387"
       inkscape:connector-curvature="0" />
    <path
       style="font-style:normal;font-variant:normal;font-weight:normal;font-stretch:normal;letter-spacing:normal;word-spacing:normal;text-anchor:start;fill:#000000;stroke:#000000;stroke-width:0;stroke-linecap:butt;stroke-linejoin:miter;stroke-miterlimit:10.43299961;stroke-opacity:1;stroke-dasharray:none;stroke-dashoffset:0"
       inkscape:connector-curvature="0"
       d="m 302.26913,599.83717 -0.25447,0.17303 -0.2392,0.17813 -0.22902,0.17813 -0.21375,0.17812 -0.20357,0.18322 -0.1934,0.18322 -0.18321,0.18321 -0.16795,0.18831 -0.16286,0.18321 -0.14759,0.18831 -0.1425,0.18322 -0.12724,0.18321 -0.12214,0.18322 -0.11197,0.18322 -0.10687,0.17812 -0.0916,0.17813 -0.0865,0.17304 -0.0814,0.17303 -0.0712,0.16795 -0.0662,0.16286 -0.056,0.16286 -0.0509,0.15268 -0.0458,0.15268 -0.0356,0.1425 -0.0356,0.1425 -0.0254,0.13233 -0.0255,0.12723 -0.0153,0.12214 -0.0153,0.11197 -0.0102,0.10688 -0.005,0.0967 0,0.0865 c 0,1.21635 0.68197,1.93395 0.73795,2.0052 0.8143,0.84483 1.04332,0.93644 2.94164,1.65404 l 3.06379,1.18581 c 0.3817,0.18322 0.89063,0.35626 0.89063,1.0993 0,0.58019 -0.45295,1.34359 -1.2418,1.34359 -1.10947,0 -1.95431,-0.61581 -2.23422,-0.81939 -0.14759,-0.0967 -0.17304,-0.12214 -0.27482,-0.12214 -0.20358,0 -0.25447,0.17813 -0.25447,0.27991 0,0.30027 1.34359,1.21635 2.76351,1.21635 1.5777,0 2.63119,-1.47081 2.63119,-2.7177 0,-1.21636 -0.93644,-1.6744 -1.21635,-1.80163 -0.34608,-0.12723 -1.21635,-0.45295 -1.54207,-0.58018 -0.50894,-0.20358 -1.01787,-0.40206 -1.54716,-0.58528 l -1.52171,-0.60563 c -1.13493,-0.46313 -1.89833,-1.19091 -1.89833,-2.25967 0,-1.03822 0.98224,-3.24191 3.11468,-4.31067 0.94153,0.3359 1.70493,0.3359 2.23422,0.3359 0.75831,0 2.35636,0 2.35636,-0.78885 0,-0.63617 -1.08912,-0.68197 -2.07645,-0.68197 l -0.0254,0.55474 c 0.88554,0 0.98733,0.0254 1.44028,0.15268 -0.19849,0.10178 -0.45295,0.19848 -1.6235,0.19848 -0.58019,0 -0.80921,0 -1.26216,-0.19848 h 0 c 0.58019,-0.15268 1.13493,-0.15268 1.44538,-0.15268 l 0.0254,-0.55474 c -0.46313,0 -1.1909,0 -2.13243,0.30027 -0.65653,-0.65652 -0.7634,-1.49118 -0.7634,-1.97975 0,-1.41484 0.91608,-3.36915 2.8144,-4.31067 0.46313,0.55982 1.04332,0.55982 1.6235,0.55982 l 0.0305,-0.55982 c -0.48349,0 -0.78376,0 -1.06367,-0.22902 h 0 c 0.40714,-0.12724 0.93643,-0.12724 1.21635,-0.12724 0.8601,0 0.96188,0.0305 1.41483,0.15777 -0.19848,0.0712 -0.45295,0.19849 -1.56751,0.19849 l -0.0305,0.55982 c 0.63617,0 2.25967,0 2.25967,-0.78884 0,-0.66162 -1.11457,-0.68198 -2.10699,-0.68198 -0.32572,0 -0.94153,0 -1.59296,0.12724 -0.0763,-0.22393 -0.12723,-0.40715 -0.12723,-0.83465 0,-0.36135 0.12723,-0.89064 0.12723,-0.94153 0,-0.19849 -0.12723,-0.32572 -0.31045,-0.32572 -0.45295,0 -0.45295,1.16037 -0.45295,1.2418 0,0.50893 0.15268,0.88046 0.17812,0.98733 -2.71261,0.7634 -4.4379,2.78896 -4.4379,4.73818 0,0.93644 0.45804,2.0052 1.64386,2.68717 z"
       id="path4404" />
    <path
       style="font-style:normal;font-variant:normal;font-weight:normal;font-stretch:normal;letter-spacing:normal;word-spacing:normal;text-anchor:start;fill:#000000;stroke:#000000;stroke-width:0;stroke-linecap:butt;stroke-linejoin:miter;stroke-miterlimit:10.43299961;stroke-opacity:1;stroke-dasharray:none;stroke-dashoffset:0"
       inkscape:connector-curvature="0"
       d="m 106.34863,410.65336 0.0254,-0.0814 0.0204,-0.0865 0.0204,-0.0763 0.0204,-0.0814 0.0204,-0.0814 0.0153,-0.0763 0.0153,-0.0814 0.0153,-0.0865 0.0102,-0.0865 0.0153,-0.0865 0.005,-0.0458 0.005,-0.0458 0,-0.0509 0.005,-0.0509 0.005,-0.0509 0,-0.0509 0.005,-0.0509 0,-0.056 0,-0.0611 0.005,-0.056 0,-0.0611 0,-0.0662 c 0,-1.64386 -1.01787,-2.70753 -2.92128,-2.70753 -2.00011,0 -3.32334,1.30796 -3.923879,2.1986 -0.12723,-1.44538 -1.19599,-2.1986 -2.3411,-2.1986 -1.16037,0 -1.64385,0.98224 -1.87796,1.4352 -0.45295,0.87027 -0.78376,2.3869 -0.78376,2.46833 0,0.25446 0.25447,0.25446 0.31045,0.25446 0.25447,0 0.27482,-0.0356 0.4275,-0.59036 0.4326,-1.79654 0.94153,-3.01289 1.85252,-3.01289 0.4326,0 0.78885,0.19848 0.78885,1.16037 0,0.53438 -0.0814,0.81938 -0.40715,2.13243 l -1.47082,5.85783 c -0.0763,0.3817 -0.22902,0.96189 -0.22902,1.08912 0,0.45295 0.35626,0.68706 0.73287,0.68706 0.30536,0 0.7634,-0.19848 0.93644,-0.70742 0.0305,-0.056 0.33589,-1.24179 0.48348,-1.87796 l 0.55983,-2.28003 c 0.14759,-0.55982 0.30027,-1.11456 0.42751,-1.70493 0.056,-0.15268 0.25446,-0.98733 0.27991,-1.13492 0.0763,-0.23411 0.865189,-1.65403 1.725289,-2.34109 0.55473,-0.40206 1.34358,-0.88046 2.4327,-0.88046 1.08912,0 1.36903,0.8601 1.36903,1.77109 0,0.12723 0,0.58018 -0.24937,1.59805 l -2.89584,11.66986 c -0.0712,0.30027 -0.0712,0.34607 -0.0712,0.40206 0,0.37661 0.27991,0.68706 0.70742,0.68706 0.78885,0 0.96188,-0.74305 1.04331,-1.01787 z"
       id="path4406" />
    <path
       inkscape:connector-curvature="0"
       id="path4429"
       d="m 259.35667,593.37412 0,-8.5863"
       style="fill:none;stroke:#000000;stroke-width:1px;stroke-linecap:butt;stroke-linejoin:miter;stroke-opacity:1" />
    <path
       sodipodi:nodetypes="cc"
       inkscape:connector-curvature="0"
       id="path4433"
       d="m 112.23214,447.36218 9.5562,0"
       style="fill:none;stroke:#000000;stroke-width:1px;stroke-linecap:butt;stroke-linejoin:miter;stroke-opacity:1" />
    <path
       id="path4456"
       d="m 105.55529,438.96699 0,-0.0229 0,-0.0275 0,-0.0229 0,-0.0229 0,-0.0229 0,-0.0229 0,-0.0183 0,-0.0229 0,-0.0183 0,-0.0183 -0.005,-0.0183 0,-0.0183 0,-0.0183 0,-0.0138 0,-0.0183 -0.005,-0.0137 -0.005,-0.0321 0,-0.0275 -0.009,-0.0229 -0.005,-0.0229 -0.009,-0.0229 -0.009,-0.0183 -0.009,-0.0183 -0.009,-0.0138 -0.0137,-0.0137 -0.0138,-0.0138 -0.0183,-0.0138 -0.0183,-0.009 -0.0183,-0.009 -0.0138,-0.005 -0.009,-0.005 -0.0137,0 -0.009,-0.005 -0.0137,-0.005 -0.0138,0 -0.0138,-0.005 -0.0137,0 -0.0183,-0.005 -0.0138,0 -0.0183,0 -0.0138,-0.005 -0.0183,0 -0.0183,0 -0.0229,0 -0.0183,0 -0.0183,0 -0.0229,-0.005 -0.0229,0 -0.0229,0 -0.0229,0 -0.0229,0 c -1.41642,1.46226 -3.42416,1.46226 -4.153,1.46226 v 0.7105 c 0.45839,0 1.80147,0 2.98411,-0.5959 v 11.83101 c 0,0.8251 -0.0642,1.09555 -2.11775,1.09555 h -0.73343 v 0.7105 c 0.80219,-0.0733 2.78701,-0.0733 3.6992,-0.0733 0.91678,0 2.89702,0 3.6992,0.0733 v -0.7105 h -0.72884 c -2.05358,0 -2.12692,-0.24753 -2.12692,-1.09555 z"
       inkscape:connector-curvature="0"
       style="font-style:normal;font-variant:normal;font-weight:normal;font-stretch:normal;letter-spacing:normal;word-spacing:normal;text-anchor:start;fill:#000000;stroke:#000000;stroke-width:0;stroke-linecap:butt;stroke-linejoin:miter;stroke-miterlimit:10.43299961;stroke-opacity:1;stroke-dasharray:none;stroke-dashoffset:0" />
    <path
       id="path4458"
       d="m 113.72106,600.32657 -0.005,-0.33921 -0.005,-0.34379 -0.009,-0.3438 -0.0137,-0.3392 -0.0183,-0.3438 -0.0275,-0.3392 -0.0367,-0.33921 -0.0458,-0.33462 -0.0504,-0.33463 -0.0642,-0.33462 -0.0733,-0.33004 -0.0871,-0.33004 -0.10084,-0.33004 -0.11002,-0.32087 -0.12834,-0.32088 -0.0688,-0.16043 -0.0733,-0.15585 c -1.04513,-2.20027 -2.92453,-2.56698 -3.88256,-2.56698 -1.366,0 -3.03912,0.5959 -3.97423,2.72283 -0.73342,1.57685 -0.84802,3.35999 -0.84802,5.18438 0,1.71437 0.0963,3.76795 1.03138,5.50066 0.98095,1.84731 2.65407,2.3057 3.76795,2.3057 v -0.49965 c -0.88469,0 -2.24152,-0.57298 -2.64949,-2.76408 -0.25211,-1.366 -0.25211,-3.46542 -0.25211,-4.82225 0,-1.45768 0,-2.96119 0.18794,-4.19426 0.43089,-2.72283 2.14068,-2.92452 2.71366,-2.92452 0.75176,0 2.26444,0.40797 2.69533,2.67241 0.22919,1.27432 0.22919,3.01619 0.22919,4.44637 0,1.71896 0,3.26831 -0.25211,4.73057 -0.34379,2.16818 -1.64562,2.85576 -2.67241,2.85576 h 0 v 0.49965 c 1.23307,0 2.96578,-0.47673 3.97423,-2.64949 0.73343,-1.57227 0.84802,-3.35082 0.84802,-5.15687 z"
       inkscape:connector-curvature="0"
       style="font-style:normal;font-variant:normal;font-weight:normal;font-stretch:normal;letter-spacing:normal;word-spacing:normal;text-anchor:start;fill:#000000;stroke:#000000;stroke-width:0;stroke-linecap:butt;stroke-linejoin:miter;stroke-miterlimit:10.43299961;stroke-opacity:1;stroke-dasharray:none;stroke-dashoffset:0" />
    <path
       style="font-style:normal;font-variant:normal;font-weight:normal;font-stretch:normal;letter-spacing:normal;word-spacing:normal;text-anchor:start;fill:#000000;stroke:#000000;stroke-width:0;stroke-linecap:butt;stroke-linejoin:miter;stroke-miterlimit:10.43299961;stroke-opacity:1;stroke-dasharray:none;stroke-dashoffset:0"
       inkscape:connector-curvature="0"
       d="m 260.36695,598.06602 0,-0.0229 0,-0.0275 0,-0.0229 0,-0.0229 0,-0.0229 0,-0.0229 0,-0.0183 0,-0.0229 0,-0.0183 0,-0.0183 -0.005,-0.0183 0,-0.0183 0,-0.0183 0,-0.0138 0,-0.0183 -0.005,-0.0137 -0.005,-0.0321 0,-0.0275 -0.009,-0.0229 -0.005,-0.0229 -0.009,-0.0229 -0.009,-0.0183 -0.009,-0.0183 -0.009,-0.0138 -0.0137,-0.0137 -0.0138,-0.0138 -0.0183,-0.0138 -0.0183,-0.009 -0.0183,-0.009 -0.0138,-0.005 -0.009,-0.005 -0.0137,0 -0.009,-0.005 -0.0137,-0.005 -0.0138,0 -0.0138,-0.005 -0.0137,0 -0.0183,-0.005 -0.0138,0 -0.0183,0 -0.0138,-0.005 -0.0183,0 -0.0183,0 -0.0229,0 -0.0183,0 -0.0183,0 -0.0229,-0.005 -0.0229,0 -0.0229,0 -0.0229,0 -0.0229,0 c -1.41642,1.46226 -3.42416,1.46226 -4.153,1.46226 v 0.7105 c 0.45839,0 1.80147,0 2.98411,-0.5959 v 11.83101 c 0,0.8251 -0.0642,1.09555 -2.11775,1.09555 h -0.73343 v 0.7105 c 0.80219,-0.0733 2.78701,-0.0733 3.6992,-0.0733 0.91678,0 2.89702,0 3.6992,0.0733 v -0.7105 h -0.72884 c -2.05358,0 -2.12692,-0.24753 -2.12692,-1.09555 z"
       id="path4485" />
  </g>
</svg>
