<?xml version="1.0" encoding="UTF-8" standalone="no"?>
<!-- Created with Inkscape (http://www.inkscape.org/) -->

<svg
   xmlns:dc="http://purl.org/dc/elements/1.1/"
   xmlns:cc="http://creativecommons.org/ns#"
   xmlns:rdf="http://www.w3.org/1999/02/22-rdf-syntax-ns#"
   xmlns:svg="http://www.w3.org/2000/svg"
   xmlns="http://www.w3.org/2000/svg"
   xmlns:sodipodi="http://sodipodi.sourceforge.net/DTD/sodipodi-0.dtd"
   xmlns:inkscape="http://www.inkscape.org/namespaces/inkscape"
   width="744.09448819"
   height="1052.3622047"
   id="svg2"
   version="1.1"
   inkscape:version="0.48.4 r9939"
   sodipodi:docname="cylinder.svg">
  <sodipodi:namedview
     id="base"
     pagecolor="#ffffff"
     bordercolor="#666666"
     borderopacity="1.0"
     inkscape:pageopacity="0.0"
     inkscape:pageshadow="2"
     inkscape:zoom="0.98994949"
     inkscape:cx="809.84005"
     inkscape:cy="468.14229"
     inkscape:document-units="px"
     inkscape:current-layer="layer1"
     showgrid="false"
     inkscape:window-width="1366"
     inkscape:window-height="718"
     inkscape:window-x="0"
     inkscape:window-y="0"
     inkscape:window-maximized="1" />
  <defs
     id="defs4" />
  <metadata
     id="metadata7">
    <rdf:RDF>
      <cc:Work
         rdf:about="">
        <dc:format>image/svg+xml</dc:format>
        <dc:type
           rdf:resource="http://purl.org/dc/dcmitype/StillImage" />
        <dc:title />
      </cc:Work>
    </rdf:RDF>
  </metadata>
  <g
     id="layer1"
     inkscape:groupmode="layer"
     inkscape:label="Layer 1">
    <path
       inkscape:connector-curvature="0"
       d="m 985.13492,619.59126 c -4.02939,8.63986 0.68967,20.92596 13.11298,34.15687 12.4217,13.22867 31.5331,26.31896 53.1311,36.39063 21.5999,10.07122 43.9105,16.29626 62.0303,17.3107 18.1198,1.01265 30.5641,-3.27111 34.5936,-11.91096"
       style="fill:none;stroke:#000000;stroke-width:2.24628091;stroke-linecap:round;stroke-linejoin:round;stroke-miterlimit:10;stroke-opacity:1;stroke-dasharray:none"
       id="path2997" />
    <path
       inkscape:connector-curvature="0"
       d="m 1148.0029,695.5385 c 4.0276,-8.63806 -0.6897,-20.92416 -13.1128,-34.15463 -12.4236,-13.22911 -31.5331,-26.31895 -53.133,-36.39062 -21.5981,-10.07167 -43.9104,-16.29851 -62.0303,-17.31116 -18.1182,-1.01264 -30.56254,3.27157 -34.59188,11.90917"
       style="fill:none;stroke:#000000;stroke-width:2.24628091;stroke-linecap:round;stroke-linejoin:round;stroke-miterlimit:10;stroke-opacity:1;stroke-dasharray:17.90306452, 8.9515098;stroke-dashoffset:0"
       id="path2999" />
    <path
       inkscape:connector-curvature="0"
       d="m 1242.937,491.95227 c 4.0295,-8.63986 -0.6878,-20.92596 -13.1114,-34.15687 -12.4231,-13.22867 -31.5345,-26.31896 -53.1325,-36.39063 -21.5986,-10.07167 -43.9109,-16.29626 -62.0308,-17.3107 -18.1198,-1.01265 -30.5641,3.27111 -34.5917,11.91096 -4.0295,8.63761 0.6896,20.92416 13.1114,34.15463 12.4231,13.22911 31.5345,26.31895 53.1325,36.39062 21.5985,10.07167 43.9109,16.29851 62.0308,17.31116 18.1198,1.01219 30.564,-3.27157 34.5917,-11.90917 z"
       style="fill:none;stroke:#000000;stroke-width:2.24628091;stroke-linecap:round;stroke-linejoin:round;stroke-miterlimit:10;stroke-opacity:1;stroke-dasharray:none"
       id="path3001" />
    <path
       inkscape:connector-curvature="0"
       d="M 1148.0029,695.5385 1242.937,491.95227"
       style="fill:none;stroke:#000000;stroke-width:2.24628091;stroke-linecap:round;stroke-linejoin:round;stroke-miterlimit:10;stroke-opacity:1;stroke-dasharray:none"
       id="path3003" />
    <path
       inkscape:connector-curvature="0"
       d="M 985.13492,619.59126 1080.0706,416.00503"
       style="fill:none;stroke:#000000;stroke-width:2.24628091;stroke-linecap:round;stroke-linejoin:round;stroke-miterlimit:10;stroke-opacity:1;stroke-dasharray:none"
       id="path3005" />
    <path
       inkscape:connector-curvature="0"
       d="M 1019.1001,759.35898 1208.9715,352.18441"
       style="fill:none;stroke:#000000;stroke-width:2.24628091;stroke-linecap:round;stroke-linejoin:round;stroke-miterlimit:10;stroke-opacity:1;stroke-dasharray:none"
       id="path3007" />
    <path
       inkscape:connector-curvature="0"
       d="m 1202.2168,373.60905 6.7547,-21.42464 -12.0704,18.94649"
       style="fill:#000000;fill-opacity:1;fill-rule:nonzero;stroke:none"
       id="path3009" />
    <path
       inkscape:connector-curvature="0"
       d="m 1202.2168,373.60905 6.7547,-21.42464 -12.0704,18.94649 5.3157,2.47815 z"
       style="fill:none;stroke:#000000;stroke-width:2.24628091;stroke-linecap:round;stroke-linejoin:round;stroke-miterlimit:10;stroke-opacity:1;stroke-dasharray:none"
       id="path3011" />
    <path
       inkscape:connector-curvature="0"
       d="m 1067.5859,658.04043 c 0.1262,-0.27001 0.1406,-0.57911 0.039,-0.8599 -0.102,-0.27899 -0.3104,-0.50722 -0.5809,-0.63346 -0.27,-0.12445 -0.5791,-0.13883 -0.8599,-0.0368 -0.279,0.10198 -0.5072,0.31044 -0.6335,0.5809 -0.1244,0.27001 -0.1388,0.5791 -0.037,0.8581 0.1015,0.28079 0.3105,0.50902 0.5809,0.63346 0.27,0.12625 0.5791,0.14062 0.8581,0.0386 0.2808,-0.10153 0.509,-0.31044 0.6335,-0.5809"
       style="fill:#000000;fill-opacity:1;fill-rule:nonzero;stroke:none"
       id="path3013" />
    <path
       inkscape:connector-curvature="0"
       d="m 1067.5859,658.04043 c 0.1262,-0.27001 0.1406,-0.57911 0.039,-0.8599 -0.102,-0.27899 -0.3104,-0.50722 -0.5809,-0.63346 -0.27,-0.12445 -0.5791,-0.13883 -0.8599,-0.0368 -0.279,0.10198 -0.5072,0.31044 -0.6335,0.5809 -0.1244,0.27001 -0.1388,0.5791 -0.037,0.8581 0.1015,0.28079 0.3105,0.50902 0.5809,0.63346 0.27,0.12625 0.5791,0.14062 0.8581,0.0386 0.2808,-0.10153 0.509,-0.31044 0.6335,-0.5809 z"
       style="fill:none;stroke:#000000;stroke-width:4.0433445;stroke-linecap:round;stroke-linejoin:round;stroke-miterlimit:10;stroke-opacity:1;stroke-dasharray:none"
       id="path3015" />
    <path
       inkscape:connector-curvature="0"
       d="m 1162.5218,454.4524 c 0.1263,-0.27046 0.1384,-0.5791 0.037,-0.8581 -0.102,-0.28079 -0.3109,-0.50902 -0.5791,-0.63347 -0.2705,-0.12669 -0.5791,-0.14062 -0.8599,-0.0386 -0.2795,0.10153 -0.5073,0.31044 -0.6339,0.5809 -0.1263,0.27001 -0.1384,0.57911 -0.037,0.8581 0.102,0.28079 0.3109,0.50902 0.5809,0.63526 0.2687,0.12445 0.5773,0.13838 0.8581,0.0368 0.2795,-0.10198 0.5072,-0.31044 0.6339,-0.5809"
       style="fill:#000000;fill-opacity:1;fill-rule:nonzero;stroke:none"
       id="path3017" />
    <path
       inkscape:connector-curvature="0"
       d="m 1162.5218,454.4524 c 0.1263,-0.27046 0.1384,-0.5791 0.037,-0.8581 -0.102,-0.28079 -0.3109,-0.50902 -0.5791,-0.63347 -0.2705,-0.12669 -0.5791,-0.14062 -0.8599,-0.0386 -0.2795,0.10153 -0.5073,0.31044 -0.6339,0.5809 -0.1263,0.27001 -0.1384,0.57911 -0.037,0.8581 0.102,0.28079 0.3109,0.50902 0.5809,0.63526 0.2687,0.12445 0.5773,0.13838 0.8581,0.0368 0.2795,-0.10198 0.5072,-0.31044 0.6339,-0.5809 z"
       style="fill:none;stroke:#000000;stroke-width:4.0433445;stroke-linecap:round;stroke-linejoin:round;stroke-miterlimit:10;stroke-opacity:1;stroke-dasharray:none"
       id="path3019" />
    <path
       id="path3038"
       d="m 1257.6739,396.3837 h -2.4874 c -0.1063,0.75472 -0.5315,2.97638 -0.9035,3.92244 -0.2658,0.70157 -0.4784,1.23307 -3.6461,1.23307 h -3.8267 c 1.1161,-2.39173 2.5937,-4.25197 4.2413,-6.31417 2.9657,-3.80552 5.9315,-7.62166 5.9315,-12.43701 0,-5.74016 -4.7728,-12.71339 -18.5917,-12.71339 -13.8189,0 -18.5811,6.97323 -18.5811,12.71339 0,4.85787 3.0189,8.68464 5.9315,12.33071 1.8602,2.3811 3.1889,4.18819 4.2307,6.42047 h -3.8055 c -3.1252,0 -3.3378,-0.5315 -3.6036,-1.06299 -0.3614,-0.96733 -0.8504,-3.56103 -0.9673,-4.09252 h -2.4662 l 1.956,10.59803 h 10.1196 c 1.1587,0 1.6902,0 1.6902,-1.42441 0,-3.70984 -1.5945,-8.58898 -2.3917,-10.91693 -1.3819,-4.18819 -2.5937,-7.98307 -2.5937,-11.85236 0,-2.08347 0.2657,-5.83583 2.8594,-8.2063 2.5937,-2.34921 6.0484,-2.61496 7.6217,-2.61496 2.7637,0 5.7826,0.79724 7.696,2.71063 1.5733,1.53071 2.8063,3.86929 2.8063,8.11063 0,3.69921 -1.1161,7.30275 -2.4449,11.2252 -1.0098,3.16771 -2.5405,7.83425 -2.5405,11.54409 0,1.42441 0.5315,1.42441 1.6901,1.42441 h 10.1197 z"
       inkscape:connector-curvature="0"
       style="font-style:normal;font-variant:normal;font-weight:normal;font-stretch:normal;letter-spacing:normal;word-spacing:normal;text-anchor:start;fill:#000000;stroke:#000000;stroke-width:0;stroke-linecap:butt;stroke-linejoin:miter;stroke-miterlimit:10.43299961;stroke-opacity:1;stroke-dasharray:none;stroke-dashoffset:0" />
    <g
       id="g3104"
       transform="translate(491.94429,204.05081)">
      <path
         style="font-style:normal;font-variant:normal;font-weight:normal;font-stretch:normal;letter-spacing:normal;word-spacing:normal;text-anchor:start;fill:#000000;stroke:#000000;stroke-width:0;stroke-linecap:butt;stroke-linejoin:miter;stroke-miterlimit:10.43299961;stroke-opacity:1;stroke-dasharray:none;stroke-dashoffset:0"
         inkscape:connector-curvature="0"
         d="m 485.68486,493.03657 0,0 0,-0.0106 0,0 0,-0.0106 0,-0.0213 0,-0.0106 0,-0.0213 -0.0106,-0.0213 0,-0.0213 0,-0.0213 -0.0106,-0.0213 -0.0106,-0.0213 0,-0.0213 -0.0106,-0.0319 -0.0106,-0.0213 -0.0213,-0.0319 -0.0106,-0.0213 -0.0213,-0.0319 -0.0106,-0.0213 -0.0213,-0.0213 -0.0319,-0.0319 -0.0106,-0.0106 -0.0106,-0.0106 -0.0106,-0.0106 -0.0213,-0.0106 -0.0106,-0.0106 -0.0213,-0.0106 -0.0106,-0.0106 -0.0213,-0.0106 -0.0213,-0.0106 -0.0106,-0.0106 -0.0213,0 -0.0213,-0.0106 -0.0213,-0.0106 -0.0213,0 -0.0319,-0.0106 -0.0213,-0.0106 -0.0213,0 -0.0319,0 -0.0213,-0.0106 -0.0319,0 -0.0213,0 -0.0319,-0.0106 -0.0319,0 -0.0319,0 c -0.79725,0 -5.8252,0.48898 -6.72874,0.58465 -0.4252,0.0532 -0.7441,0.3189 -0.7441,1.00984 0,0.6378 0.47835,0.6378 1.27559,0.6378 2.54055,0 2.64685,0.36141 2.64685,0.89291 l -0.14882,1.06299 -3.18897,12.55394 c -0.9567,-1.95591 -2.49803,-3.38032 -4.86851,-3.38032 l 0.0425,1.15866 c 3.4441,0 4.18819,4.33701 4.18819,4.64528 0,0.34016 -0.0957,0.64842 -0.14882,0.91417 l -2.65748,10.38544 c -0.26574,0.94606 -0.26574,1.04173 -1.06299,1.9559 -2.32795,2.9126 -4.49646,3.75236 -5.97401,3.75236 -2.64685,0 -3.39095,-2.90197 -3.39095,-4.9748 0,-2.64685 1.69016,-9.15236 2.90197,-11.59724 1.64764,-3.1252 4.03937,-5.08111 6.14409,-5.08111 l -0.0425,-1.15866 c -6.19724,0 -12.7559,7.77048 -12.7559,15.50906 0,4.98543 2.90197,8.47204 7.03701,8.47204 1.05236,0 3.70984,-0.22322 6.87756,-3.97559 0.43582,2.23229 2.2748,3.97559 4.81535,3.97559 1.86024,0 3.07205,-1.21181 3.92244,-2.91259 0.89291,-1.90276 1.59449,-5.14489 1.59449,-5.24055 0,-0.5315 -0.47835,-0.5315 -0.62717,-0.5315 -0.53149,0 -0.58464,0.2126 -0.75472,0.95669 -0.89291,3.4441 -1.86024,6.55866 -4.01811,6.55866 -1.42441,0 -1.59449,-1.37126 -1.59449,-2.43425 0,-1.26496 0.1063,-1.64764 0.3189,-2.54055 z"
         id="path3040" />
      <path
         style="font-style:normal;font-variant:normal;font-weight:normal;font-stretch:normal;letter-spacing:normal;word-spacing:normal;text-anchor:start;fill:#000000;stroke:#000000;stroke-width:0;stroke-linecap:butt;stroke-linejoin:miter;stroke-miterlimit:10.43299961;stroke-opacity:1;stroke-dasharray:none;stroke-dashoffset:0"
         inkscape:connector-curvature="0"
         d="m 513.35455,509.4598 0.0638,0 0.0744,0 0.085,0 0.085,0 0.085,0 0.0957,-0.0106 0.0957,0 0.1063,-0.0106 0.1063,-0.0106 0.1063,-0.0213 0.1063,-0.0213 0.1063,-0.0213 0.1063,-0.0213 0.11693,-0.0319 0.10629,-0.0319 0.1063,-0.0425 0.1063,-0.0425 0.0957,-0.0532 0.0957,-0.0531 0.0957,-0.0638 0.0957,-0.0744 0.085,-0.0744 0.0425,-0.0425 0.0425,-0.0425 0.0319,-0.0425 0.0425,-0.0532 0.0319,-0.0425 0.0319,-0.0532 0.0319,-0.0532 0.0319,-0.0531 0.0213,-0.0532 0.0319,-0.0638 0.0213,-0.0638 0.0213,-0.0638 0.0213,-0.0638 0.0106,-0.0638 0.0106,-0.0744 0.0213,-0.0744 0,-0.0744 0.0106,-0.085 0,-0.0744 0.0106,-0.085 c 0,-1.26496 -1.11615,-1.26496 -2.06221,-1.26496 h -12.07559 c -8.00433,0 -13.88268,8.73779 -13.88268,15.03071 0,4.66653 3.11457,8.37637 7.94056,8.37637 l 0.0638,-1.16929 c -2.61497,0 -4.71969,-1.90275 -4.71969,-5.70826 0,-1.59449 0.62717,-5.94213 2.4874,-9.06733 2.23229,-3.65669 5.4,-4.39015 7.19646,-4.39015 4.45394,0 4.87913,3.48661 4.87913,5.13425 0,2.4874 -1.06299,6.82441 -2.84882,9.53504 -2.08346,3.12519 -4.93228,4.49645 -6.99448,4.49645 h 0 l -0.0638,1.16929 c 6.26102,0 13.29803,-6.40984 13.29803,-14.57362 0,-0.89291 0,-3.43346 -1.64764,-5.76141 z"
         id="path3042" />
    </g>
    <path
       id="path3044"
       d="m 1173.1465,700.31485 -0.1382,0.0106 -0.1382,0.0106 -0.1382,0.0213 -0.1275,0.0319 -0.1276,0.0319 -0.1169,0.0425 -0.1276,0.0425 -0.1169,0.0425 -0.1169,0.0532 -0.1063,0.0638 -0.1063,0.0638 -0.1063,0.0638 -0.096,0.0744 -0.096,0.0744 -0.085,0.0744 -0.085,0.085 -0.085,0.085 -0.074,0.085 -0.074,0.0957 -0.074,0.085 -0.064,0.0957 -0.053,0.1063 -0.053,0.0957 -0.053,0.10629 -0.043,0.0957 -0.032,0.1063 -0.032,0.1063 -0.032,0.1063 -0.021,0.1063 -0.011,0.11693 -0.011,0.1063 0,0.1063 c 0,0.74409 0.457,1.53071 1.6476,1.53071 1.1587,0 2.4236,-0.90355 2.4236,-2.95512 0,-2.39173 -2.2854,-4.54961 -6.3035,-4.54961 -6.9839,0 -8.9504,5.38937 -8.9504,7.71733 0,4.13503 3.9224,4.93228 5.4531,5.25118 2.7532,0.53149 5.517,1.11614 5.517,4.01811 0,1.38189 -1.2225,5.82519 -7.5792,5.82519 -0.7441,0 -4.8153,0 -6.0484,-2.8063 2.0303,0.26575 3.3378,-1.32874 3.3378,-2.80629 0,-1.21182 -0.8398,-1.86024 -1.9559,-1.86024 -1.3819,0 -2.9551,1.11614 -2.9551,3.50787 0,3.0189 3.0189,5.13425 7.5685,5.13425 8.5677,0 10.6512,-6.40984 10.6512,-8.79094 0,-1.90276 -1.0205,-3.2315 -1.6477,-3.86929 -1.4244,-1.47756 -2.9657,-1.74331 -5.2937,-2.22165 -1.9134,-0.41457 -4.0181,-0.79725 -4.0181,-3.17835 0,-1.54134 1.2543,-4.76221 5.9209,-4.76221 1.3181,0 3.9756,0.36142 4.7728,2.42363 z"
       inkscape:connector-curvature="0"
       style="font-style:normal;font-variant:normal;font-weight:normal;font-stretch:normal;letter-spacing:normal;word-spacing:normal;text-anchor:start;fill:#000000;stroke:#000000;stroke-width:0;stroke-linecap:butt;stroke-linejoin:miter;stroke-miterlimit:10.43299961;stroke-opacity:1;stroke-dasharray:none;stroke-dashoffset:0" />
    <g
       id="g3108"
       transform="translate(707.10678,-25.253814)">
      <path
         style="font-style:normal;font-variant:normal;font-weight:normal;font-stretch:normal;letter-spacing:normal;word-spacing:normal;text-anchor:start;fill:#000000;stroke:#000000;stroke-width:0;stroke-linecap:butt;stroke-linejoin:miter;stroke-miterlimit:10.43299961;stroke-opacity:1;stroke-dasharray:none;stroke-dashoffset:0"
         inkscape:connector-curvature="0"
         d="m 563.6447,509.39602 -0.13819,0.0106 -0.13819,0.0106 -0.13819,0.0213 -0.12755,0.0319 -0.12756,0.0319 -0.12756,0.0425 -0.11693,0.0425 -0.11693,0.0425 -0.11693,0.0532 -0.1063,0.0638 -0.1063,0.0638 -0.1063,0.0638 -0.0957,0.0744 -0.0957,0.0744 -0.085,0.0744 -0.0957,0.085 -0.0744,0.085 -0.085,0.085 -0.0638,0.0957 -0.0744,0.085 -0.0638,0.0957 -0.0531,0.1063 -0.0531,0.0957 -0.0532,0.10629 -0.0425,0.0957 -0.0319,0.1063 -0.0319,0.1063 -0.0319,0.1063 -0.0213,0.1063 -0.0106,0.11693 -0.0106,0.1063 0,0.1063 c 0,0.74409 0.45709,1.53071 1.63701,1.53071 1.16929,0 2.43425,-0.90355 2.43425,-2.95512 0,-2.39173 -2.28543,-4.54961 -6.30354,-4.54961 -6.98386,0 -8.9504,5.38937 -8.9504,7.71733 0,4.13503 3.92244,4.93228 5.45315,5.25118 2.75315,0.53149 5.5063,1.11614 5.5063,4.01811 0,1.38189 -1.21181,5.82519 -7.5685,5.82519 -0.75473,0 -4.81536,0 -6.04843,-2.8063 2.03032,0.26575 3.3378,-1.32874 3.3378,-2.80629 0,-1.21182 -0.83976,-1.86024 -1.95591,-1.86024 -1.38189,0 -2.95511,1.11614 -2.95511,3.50787 0,3.0189 3.01889,5.13425 7.5685,5.13425 8.56772,0 10.65118,-6.40984 10.65118,-8.79094 0,-1.90276 -1.02047,-3.2315 -1.64764,-3.86929 -1.42441,-1.47756 -2.97638,-1.74331 -5.2937,-2.22165 -1.91338,-0.41457 -4.01811,-0.79725 -4.01811,-3.17835 0,-1.54134 1.25433,-4.76221 5.92087,-4.76221 1.31811,0 3.97559,0.36142 4.77283,2.42363 z"
         id="path3046" />
      <path
         style="font-style:normal;font-variant:normal;font-weight:normal;font-stretch:normal;letter-spacing:normal;word-spacing:normal;text-anchor:start;fill:#000000;stroke:#000000;stroke-width:0;stroke-linecap:butt;stroke-linejoin:miter;stroke-miterlimit:10.43299961;stroke-opacity:1;stroke-dasharray:none;stroke-dashoffset:0"
         inkscape:connector-curvature="0"
         d="m 601.18958,517.03893 h 14.78622 c 0.73347,0 1.74331,0 1.74331,-1.06299 0,-1.06299 -1.00984,-1.06299 -1.74331,-1.06299 h -14.78622 v -14.83937 c 0,-0.72284 0,-1.74331 -1.06299,-1.74331 -1.04173,0 -1.04173,1.02047 -1.04173,1.74331 v 14.83937 h -14.82874 c -0.7441,0 -1.74331,0 -1.74331,1.06299 0,1.06299 0.99921,1.06299 1.74331,1.06299 h 14.82874 v 14.81811 c 0,0.74409 0,1.75394 1.04173,1.75394 1.06299,0 1.06299,-1.00985 1.06299,-1.75394 z"
         id="path3048" />
      <path
         style="font-style:normal;font-variant:normal;font-weight:normal;font-stretch:normal;letter-spacing:normal;word-spacing:normal;text-anchor:start;fill:#000000;stroke:#000000;stroke-width:0;stroke-linecap:butt;stroke-linejoin:miter;stroke-miterlimit:10.43299961;stroke-opacity:1;stroke-dasharray:none;stroke-dashoffset:0"
         inkscape:connector-curvature="0"
         d="m 659.79234,493.03657 0,0 0,-0.0106 0,0 0,-0.0106 0,-0.0213 0,-0.0106 0,-0.0213 -0.0106,-0.0213 0,-0.0213 0,-0.0213 -0.0106,-0.0213 -0.0106,-0.0213 0,-0.0213 -0.0106,-0.0319 -0.0106,-0.0213 -0.0213,-0.0319 -0.0106,-0.0213 -0.0213,-0.0319 -0.0106,-0.0213 -0.0213,-0.0213 -0.0319,-0.0319 -0.0106,-0.0106 -0.0106,-0.0106 -0.0106,-0.0106 -0.0213,-0.0106 -0.0106,-0.0106 -0.0213,-0.0106 -0.0106,-0.0106 -0.0213,-0.0106 -0.0213,-0.0106 -0.0213,-0.0106 -0.0106,0 -0.0213,-0.0106 -0.0213,-0.0106 -0.0213,0 -0.0319,-0.0106 -0.0213,-0.0106 -0.0213,0 -0.0319,0 -0.0213,-0.0106 -0.0319,0 -0.0213,0 -0.0319,-0.0106 -0.0319,0 -0.0319,0 c -0.79724,0 -5.83582,0.48898 -6.72874,0.58465 -0.43582,0.0532 -0.74409,0.3189 -0.74409,1.00984 0,0.6378 0.47834,0.6378 1.27559,0.6378 2.54055,0 2.64685,0.36141 2.64685,0.89291 l -0.15945,1.06299 -3.18898,12.55394 c -0.93543,-1.95591 -2.4874,-3.38032 -4.85787,-3.38032 l 0.0425,1.15866 c 3.44409,0 4.18819,4.33701 4.18819,4.64528 0,0.34016 -0.0957,0.64842 -0.14882,0.91417 l -2.65748,10.38544 c -0.26575,0.94606 -0.26575,1.04173 -1.06299,1.9559 -2.32796,2.9126 -4.49646,3.75236 -5.97402,3.75236 -2.64685,0 -3.39094,-2.90197 -3.39094,-4.9748 0,-2.64685 1.69015,-9.15236 2.90197,-11.59724 1.64763,-3.1252 4.03937,-5.08111 6.14409,-5.08111 l -0.0425,-1.15866 c -6.19724,0 -12.75591,7.77048 -12.75591,15.50906 0,4.98543 2.90197,8.47204 7.03701,8.47204 1.05236,0 3.70984,-0.22322 6.87756,-3.97559 0.43583,2.23229 2.2748,3.97559 4.81536,3.97559 1.86023,0 3.07204,-1.21181 3.92244,-2.91259 0.89291,-1.90276 1.59448,-5.14489 1.59448,-5.24055 0,-0.5315 -0.47834,-0.5315 -0.62716,-0.5315 -0.5315,0 -0.58465,0.2126 -0.75473,0.95669 -0.89291,3.4441 -1.86023,6.55866 -4.01811,6.55866 -1.4244,0 -1.59448,-1.37126 -1.59448,-2.43425 0,-1.26496 0.0957,-1.64764 0.31889,-2.54055 z"
         id="path3050" />
      <path
         style="font-style:normal;font-variant:normal;font-weight:normal;font-stretch:normal;letter-spacing:normal;word-spacing:normal;text-anchor:start;fill:#000000;stroke:#000000;stroke-width:0;stroke-linecap:butt;stroke-linejoin:miter;stroke-miterlimit:10.43299961;stroke-opacity:1;stroke-dasharray:none;stroke-dashoffset:0"
         inkscape:connector-curvature="0"
         d="m 680.73328,509.39602 -0.13819,0.0106 -0.13819,0.0106 -0.12756,0.0213 -0.13818,0.0319 -0.12756,0.0319 -0.11693,0.0425 -0.12756,0.0425 -0.11693,0.0425 -0.1063,0.0532 -0.11693,0.0638 -0.1063,0.0638 -0.1063,0.0638 -0.0957,0.0744 -0.0957,0.0744 -0.085,0.0744 -0.085,0.085 -0.085,0.085 -0.0744,0.085 -0.0744,0.0957 -0.0744,0.085 -0.0638,0.0957 -0.0531,0.1063 -0.0531,0.0957 -0.0532,0.10629 -0.0425,0.0957 -0.0319,0.1063 -0.0319,0.1063 -0.0319,0.1063 -0.0213,0.1063 -0.0106,0.11693 -0.0106,0.1063 0,0.1063 c 0,0.74409 0.46772,1.53071 1.64764,1.53071 1.15866,0 2.42362,-0.90355 2.42362,-2.95512 0,-2.39173 -2.2748,-4.54961 -6.30354,-4.54961 -6.98386,0 -8.9504,5.38937 -8.9504,7.71733 0,4.13503 3.92244,4.93228 5.45315,5.25118 2.75315,0.53149 5.51693,1.11614 5.51693,4.01811 0,1.38189 -1.21181,5.82519 -7.57913,5.82519 -0.7441,0 -4.81536,0 -6.04843,-2.8063 2.03032,0.26575 3.3378,-1.32874 3.3378,-2.80629 0,-1.21182 -0.83977,-1.86024 -1.95591,-1.86024 -1.38189,0 -2.95511,1.11614 -2.95511,3.50787 0,3.0189 3.01889,5.13425 7.5685,5.13425 8.57835,0 10.65118,-6.40984 10.65118,-8.79094 0,-1.90276 -1.00984,-3.2315 -1.64764,-3.86929 -1.42441,-1.47756 -2.96575,-1.74331 -5.2937,-2.22165 -1.91338,-0.41457 -4.01811,-0.79725 -4.01811,-3.17835 0,-1.54134 1.25433,-4.76221 5.92087,-4.76221 1.31811,0 3.97559,0.36142 4.77283,2.42363 z"
         id="path3052" />
    </g>
  </g>
</svg>
