<?xml version="1.0" encoding="UTF-8" standalone="no"?>
<!-- Created with Inkscape (http://www.inkscape.org/) -->

<svg
   xmlns:dc="http://purl.org/dc/elements/1.1/"
   xmlns:cc="http://creativecommons.org/ns#"
   xmlns:rdf="http://www.w3.org/1999/02/22-rdf-syntax-ns#"
   xmlns:svg="http://www.w3.org/2000/svg"
   xmlns="http://www.w3.org/2000/svg"
   xmlns:sodipodi="http://sodipodi.sourceforge.net/DTD/sodipodi-0.dtd"
   xmlns:inkscape="http://www.inkscape.org/namespaces/inkscape"
   width="744.09448819"
   height="1052.3622047"
   id="svg2"
   version="1.1"
   inkscape:version="0.48.4 r9939"
   sodipodi:docname="New document 1">
  <sodipodi:namedview
     id="base"
     pagecolor="#ffffff"
     bordercolor="#666666"
     borderopacity="1.0"
     inkscape:pageopacity="0.0"
     inkscape:pageshadow="2"
     inkscape:zoom="2.8"
     inkscape:cx="225.03296"
     inkscape:cy="689.92702"
     inkscape:document-units="px"
     inkscape:current-layer="layer1"
     showgrid="false"
     showguides="true"
     inkscape:guide-bbox="true"
     inkscape:object-paths="true"
     inkscape:snap-intersection-paths="false"
     inkscape:object-nodes="false"
     inkscape:snap-smooth-nodes="false"
     inkscape:snap-midpoints="false"
     inkscape:window-width="1366"
     inkscape:window-height="718"
     inkscape:window-x="0"
     inkscape:window-y="0"
     inkscape:window-maximized="1">
    <sodipodi:guide
       orientation="1,0"
       position="319.64286,716.07143"
       id="guide9942" />
  </sodipodi:namedview>
  <defs
     id="defs4">
    <marker
       inkscape:stockid="Arrow1Mend"
       orient="auto"
       refY="0.0"
       refX="0.0"
       id="Arrow1Mend"
       style="overflow:visible;">
      <path
         id="path3784"
         d="M 0.0,0.0 L 5.0,-5.0 L -12.5,0.0 L 5.0,5.0 L 0.0,0.0 z "
         style="fill-rule:evenodd;stroke:#000000;stroke-width:1.0pt;"
         transform="scale(0.4) rotate(180) translate(10,0)" />
    </marker>
    <marker
       inkscape:stockid="Arrow1Mstart"
       orient="auto"
       refY="0.0"
       refX="0.0"
       id="Arrow1Mstart"
       style="overflow:visible">
      <path
         id="path3781"
         d="M 0.0,0.0 L 5.0,-5.0 L -12.5,0.0 L 5.0,5.0 L 0.0,0.0 z "
         style="fill-rule:evenodd;stroke:#000000;stroke-width:1.0pt"
         transform="scale(0.4) translate(10,0)" />
    </marker>
    <marker
       inkscape:stockid="Arrow1Lstart"
       orient="auto"
       refY="0.0"
       refX="0.0"
       id="Arrow1Lstart"
       style="overflow:visible">
      <path
         id="path3775"
         d="M 0.0,0.0 L 5.0,-5.0 L -12.5,0.0 L 5.0,5.0 L 0.0,0.0 z "
         style="fill-rule:evenodd;stroke:#000000;stroke-width:1.0pt"
         transform="scale(0.8) translate(12.5,0)" />
    </marker>
    <marker
       inkscape:stockid="DotS"
       orient="auto"
       refY="0.0"
       refX="0.0"
       id="DotS"
       style="overflow:visible">
      <path
         id="path3842"
         d="M -2.5,-1.0 C -2.5,1.7600000 -4.7400000,4.0 -7.5,4.0 C -10.260000,4.0 -12.5,1.7600000 -12.5,-1.0 C -12.5,-3.7600000 -10.260000,-6.0 -7.5,-6.0 C -4.7400000,-6.0 -2.5,-3.7600000 -2.5,-1.0 z "
         style="fill-rule:evenodd;stroke:#000000;stroke-width:1.0pt"
         transform="scale(0.2) translate(7.4, 1)" />
    </marker>
    <marker
       inkscape:stockid="EmptyDiamondS"
       orient="auto"
       refY="0.0"
       refX="0.0"
       id="EmptyDiamondS"
       style="overflow:visible">
      <path
         id="path3887"
         d="M 0,-7.0710768 L -7.0710894,0 L 0,7.0710589 L 7.0710462,0 L 0,-7.0710768 z "
         style="fill-rule:evenodd;fill:#FFFFFF;stroke:#000000;stroke-width:1.0pt"
         transform="scale(0.2)" />
    </marker>
    <marker
       inkscape:stockid="EmptyDiamondMend"
       orient="auto"
       refY="0.0"
       refX="0.0"
       id="EmptyDiamondMend"
       style="overflow:visible">
      <path
         id="path3902"
         d="M 0,-7.0710768 L -7.0710894,0 L 0,7.0710589 L 7.0710462,0 L 0,-7.0710768 z "
         style="fill-rule:evenodd;fill:#FFFFFF;stroke:#000000;stroke-width:1.0pt"
         transform="scale(0.4) translate(-6.5,0)" />
    </marker>
  </defs>
  <metadata
     id="metadata7">
    <rdf:RDF>
      <cc:Work
         rdf:about="">
        <dc:format>image/svg+xml</dc:format>
        <dc:type
           rdf:resource="http://purl.org/dc/dcmitype/StillImage" />
        <dc:title></dc:title>
      </cc:Work>
    </rdf:RDF>
  </metadata>
  <g
     inkscape:label="Layer 1"
     inkscape:groupmode="layer"
     id="layer1">
    <path
       style="fill:none;stroke:#000000;stroke-width:1;stroke-linecap:butt;stroke-linejoin:miter;stroke-miterlimit:4;stroke-opacity:1;stroke-dasharray:none"
       d="m 152.5,360.39237 167.14286,0.37244"
       id="path2993"
       inkscape:connector-curvature="0"
       sodipodi:nodetypes="cc" />
    <path
       style="fill:none;stroke:#000000;stroke-width:0.5;stroke-linecap:butt;stroke-linejoin:miter;stroke-opacity:1;stroke-miterlimit:4;stroke-dasharray:1,0.5;stroke-dashoffset:0"
       d="m 168.69548,430.61329 0.25254,-70.2056"
       id="path2995"
       inkscape:connector-curvature="0"
       sodipodi:nodetypes="cc" />
    <path
       style="fill:none;stroke:#000000;stroke-width:1px;stroke-linecap:butt;stroke-linejoin:miter;stroke-opacity:1"
       d="m 152.85492,430.82251 c 58.64476,0.11324 85.66084,0.48701 166.78794,-0.34817"
       id="path2999"
       inkscape:connector-curvature="0"
       sodipodi:nodetypes="cc" />
    <path
       style="fill:none;stroke:#000000;stroke-width:0;stroke-linecap:butt;stroke-linejoin:miter;stroke-opacity:1;marker-start:none;stroke-miterlimit:4;stroke-dasharray:none"
       d="m 205.56604,360.66023 -26.5165,69.19545"
       id="path3769"
       inkscape:connector-curvature="0" />
    <path
       style="fill:none;stroke:#000000;stroke-width:1;stroke-linecap:butt;stroke-linejoin:miter;stroke-miterlimit:4;stroke-opacity:1;stroke-dasharray:2, 1;stroke-dashoffset:0;marker-start:url(#EmptyDiamondS);marker-mid:none;marker-end:url(#DotS)"
       d="m 177.91305,430.88769 32.70376,-69.97493"
       id="path4579"
       inkscape:connector-curvature="0"
       sodipodi:nodetypes="cc" />
    <path
       style="fill:none;stroke:#000000;stroke-width:1;stroke-linecap:butt;stroke-linejoin:miter;stroke-miterlimit:4;stroke-opacity:1;stroke-dasharray:2, 1;stroke-dashoffset:0;marker-start:url(#EmptyDiamondS);marker-mid:none;marker-end:url(#DotS)"
       d="m 243.90031,430.98797 32.08841,-70.46383"
       id="path6255"
       inkscape:connector-curvature="0"
       sodipodi:nodetypes="cc" />
    <path
       style="fill:none;stroke:#000000;stroke-width:0.5;stroke-linecap:butt;stroke-linejoin:miter;stroke-opacity:1;stroke-miterlimit:4;stroke-dasharray:1,0.5;stroke-dashoffset:0"
       d="m 308.21417,360.48322 -1.42846,69.01574"
       id="path6815"
       inkscape:connector-curvature="0" />
    <path
       style="fill:none;stroke:#000000;stroke-width:0.7;stroke-linecap:butt;stroke-linejoin:miter;stroke-opacity:1;marker-start:url(#Arrow1Mstart);marker-mid:none;marker-end:url(#Arrow1Mend);stroke-miterlimit:4;stroke-dasharray:none"
       d="m 168.21429,440.57647 137.5,0"
       id="path6817"
       inkscape:connector-curvature="0" />
    <path
       style="fill:none;stroke:#000000;stroke-width:0.7;stroke-linecap:butt;stroke-linejoin:miter;stroke-opacity:1;marker-start:url(#Arrow1Mstart);marker-mid:none;marker-end:url(#Arrow1Mend);stroke-miterlimit:4;stroke-dasharray:none"
       d="m 160.00009,360.64604 -1.07152,70.18718"
       id="path7587"
       inkscape:connector-curvature="0" />
    <path
       style="fill:none;stroke:#000000;stroke-width:1px;stroke-linecap:butt;stroke-linejoin:miter;stroke-opacity:1"
       d="m 168.94802,360.40769 41.03463,0.11277"
       id="path8167"
       inkscape:connector-curvature="0"
       sodipodi:nodetypes="cc" />
    <path
       style="fill:none;stroke:#000000;stroke-width:0.69999999999999996;stroke-linecap:butt;stroke-linejoin:miter;stroke-opacity:1;stroke-miterlimit:4;stroke-dasharray:none;marker-start:url(#Arrow1Mstart);marker-end:url(#Arrow1Mend)"
       d="m 169.28571,349.50504 40.35715,0"
       id="path8169"
       inkscape:connector-curvature="0" />
    <text
       xml:space="preserve"
       style="font-size:10px;font-style:normal;font-weight:normal;line-height:125%;letter-spacing:0px;word-spacing:0px;fill:#000000;fill-opacity:1;stroke:none;font-family:Sans"
       x="183.21429"
       y="344.14789"
       id="text8939"
       sodipodi:linespacing="125%"><tspan
         sodipodi:role="line"
         id="tspan8941"
         x="183.21429"
         y="344.14789" /></text>
    <path
       style="font-style:normal;font-variant:normal;font-weight:normal;font-stretch:normal;letter-spacing:normal;word-spacing:normal;text-anchor:start;fill:#000000;stroke:#000000;stroke-width:0;stroke-linecap:butt;stroke-linejoin:miter;stroke-miterlimit:10.43299961;stroke-opacity:1;stroke-dasharray:none;stroke-dashoffset:0"
       inkscape:connector-curvature="0"
       id="path9058"
       d="m 148.10938,389.64314 h 3.92213 c 0.30422,0 1.13732,0 1.13732,-0.79566 0,-0.55696 -0.48675,-0.55696 -0.92671,-0.55696 h -6.52908 c -0.46804,0 -1.37602,0 -2.40102,1.09988 -0.77693,0.83311 -1.4275,1.95171 -1.4275,2.0968 0,0.0234 0,0.22465 0.28082,0.22465 0.18721,0 0.23401,-0.0842 0.36975,-0.27613 1.15136,-1.79258 2.4759,-1.79258 2.96265,-1.79258 h 1.93767 l -2.28869,7.48387 c -0.0889,0.27614 -0.22466,0.76758 -0.22466,0.86119 0,0.25742 0.15913,0.62716 0.67397,0.62716 0.76758,0 0.88459,-0.65056 0.95479,-1.00159 z" />
    <path
       style="font-style:normal;font-variant:normal;font-weight:normal;font-stretch:normal;letter-spacing:normal;word-spacing:normal;text-anchor:start;fill:#000000;stroke:#000000;stroke-width:0;stroke-linecap:butt;stroke-linejoin:miter;stroke-miterlimit:10.43299961;stroke-opacity:1;stroke-dasharray:none;stroke-dashoffset:0"
       inkscape:connector-curvature="0"
       id="path9060"
       d="m 238.25567,449.19773 0,0 0,-0.005 0,0 0,-0.005 -0.005,-0.009 0,-0.005 0,-0.009 0,-0.009 0,-0.009 -0.005,-0.009 0,-0.009 -0.005,-0.009 -0.005,-0.009 -0.005,-0.014 -0.005,-0.009 -0.005,-0.014 -0.005,-0.009 -0.009,-0.014 -0.009,-0.009 -0.009,-0.009 -0.009,-0.014 -0.005,-0.005 -0.009,-0.005 -0.005,-0.005 -0.005,-0.005 -0.009,-0.005 -0.005,-0.005 -0.009,-0.005 -0.005,-0.005 -0.009,-0.005 -0.009,-0.005 -0.009,0 -0.009,-0.005 -0.009,-0.005 -0.009,0 -0.009,-0.005 -0.009,-0.005 -0.014,0 -0.009,0 -0.014,-0.005 -0.009,0 -0.014,0 -0.014,-0.005 -0.014,0 -0.009,0 c -0.54292,0 -2.24189,0.1919 -2.84565,0.23402 -0.1919,0.0234 -0.44932,0.0468 -0.44932,0.46803 0,0.28083 0.2153,0.28083 0.56632,0.28083 1.11861,0 1.16073,0.15912 1.16073,0.39314 l -0.0702,0.46804 -3.3792,13.43259 c -0.0983,0.32294 -0.0983,0.37443 -0.0983,0.51484 0,0.53356 0.46804,0.65056 0.68333,0.65056 0.36975,0 0.74417,-0.28082 0.86118,-0.60844 l 0.43996,-1.76917 0.51951,-2.0968 c 0.13573,-0.51483 0.27615,-1.02499 0.39315,-1.56791 0.0421,-0.14041 0.23402,-0.90799 0.25742,-1.04372 0.0655,-0.21529 0.79098,-1.52111 1.58664,-2.15296 0.51016,-0.36974 1.23561,-0.8097 2.23721,-0.8097 1.00159,0 1.25901,0.79098 1.25901,1.62876 0,1.25902 -0.88459,3.80512 -1.45091,5.22327 -0.18253,0.54292 -0.29954,0.81906 -0.29954,1.28709 0,1.09052 0.81438,1.90958 1.90958,1.90958 2.19508,0 3.05626,-3.40261 3.05626,-3.58982 0,-0.23402 -0.21061,-0.23402 -0.27613,-0.23402 -0.23402,0 -0.23402,0.0702 -0.35103,0.42123 -0.35103,1.23561 -1.09988,2.88778 -2.37762,2.88778 -0.40251,0 -0.56164,-0.23402 -0.56164,-0.76758 0,-0.58504 0.21062,-1.14668 0.42123,-1.65684 0.37443,-1.0016 1.41815,-3.77704 1.41815,-5.12966 0,-1.51175 -0.93607,-2.48995 -2.68184,-2.48995 -1.46963,0 -2.58823,0.7161 -3.44942,1.7879 z" />
    <g
       id="g9936"
       transform="matrix(0.44029917,0,0,0.44029917,21.035731,182.01063)">
      <path
         style="font-style:normal;font-variant:normal;font-weight:normal;font-stretch:normal;letter-spacing:normal;word-spacing:normal;text-anchor:start;fill:#000000;stroke:#000000;stroke-width:0;stroke-linecap:butt;stroke-linejoin:miter;stroke-miterlimit:10.43299961;stroke-opacity:1;stroke-dasharray:none;stroke-dashoffset:0"
         inkscape:connector-curvature="0"
         id="path8980"
         d="m 372.95078,321.31064 0,0 0,-0.0106 0,0 0,-0.0106 0,-0.0213 0,-0.0106 0,-0.0213 0,-0.0213 -0.0106,-0.0213 0,-0.0213 0,-0.0213 -0.0106,-0.0213 -0.0106,-0.0213 -0.0106,-0.0319 -0.0106,-0.0213 -0.0106,-0.0319 -0.0213,-0.0213 -0.0106,-0.0319 -0.0213,-0.0213 -0.0213,-0.0213 -0.0213,-0.0319 -0.0106,-0.0106 -0.0213,-0.0106 -0.0106,-0.0106 -0.0106,-0.0106 -0.0213,-0.0106 -0.0106,-0.0106 -0.0213,-0.0106 -0.0106,-0.0106 -0.0213,-0.0106 -0.0213,-0.0106 -0.0213,0 -0.0213,-0.0106 -0.0213,-0.0106 -0.0213,0 -0.0213,-0.0106 -0.0213,-0.0106 -0.0319,0 -0.0213,0 -0.0319,-0.0106 -0.0213,0 -0.0319,0 -0.0319,-0.0106 -0.0319,0 -0.0213,0 c -1.23307,0 -5.09173,0.43583 -6.46299,0.5315 -0.43583,0.0531 -1.02047,0.1063 -1.02047,1.06299 0,0.6378 0.48897,0.6378 1.28622,0.6378 2.54055,0 2.63622,0.36141 2.63622,0.89291 l -0.15945,1.06299 -7.6748,30.50787 c -0.22323,0.73347 -0.22323,0.8504 -0.22323,1.1693 0,1.21181 1.06299,1.47755 1.55197,1.47755 0.83976,0 1.69015,-0.63779 1.9559,-1.38189 l 0.99921,-4.01811 1.17992,-4.7622 c 0.30827,-1.16929 0.62717,-2.32795 0.89292,-3.56102 0.0957,-0.3189 0.53149,-2.06221 0.58464,-2.37048 0.14882,-0.48897 1.79646,-3.45472 3.60355,-4.88976 1.15866,-0.83976 2.8063,-1.83898 5.0811,-1.83898 2.2748,0 2.85945,1.79646 2.85945,3.69922 0,2.85945 -2.00906,8.64212 -3.29528,11.86299 -0.41456,1.23307 -0.68031,1.86023 -0.68031,2.92323 0,2.47677 1.8496,4.337 4.33701,4.337 4.98543,0 6.94133,-7.72795 6.94133,-8.15314 0,-0.5315 -0.47834,-0.5315 -0.62716,-0.5315 -0.5315,0 -0.5315,0.15945 -0.79725,0.95669 -0.79724,2.8063 -2.49803,6.55866 -5.4,6.55866 -0.91417,0 -1.27559,-0.53149 -1.27559,-1.7433 0,-1.32874 0.47835,-2.60433 0.9567,-3.763 0.85039,-2.2748 3.22086,-8.57834 3.22086,-11.65039 0,-3.43346 -2.12598,-5.65512 -6.09094,-5.65512 -3.3378,0 -5.87835,1.62638 -7.83425,4.06063 z" />
      <path
         style="font-style:normal;font-variant:normal;font-weight:normal;font-stretch:normal;letter-spacing:normal;word-spacing:normal;text-anchor:start;fill:#000000;stroke:#000000;stroke-width:0;stroke-linecap:butt;stroke-linejoin:miter;stroke-miterlimit:10.43299961;stroke-opacity:1;stroke-dasharray:none;stroke-dashoffset:0"
         inkscape:connector-curvature="0"
         id="path8982"
         d="m 400.65235,341.83702 0,-0.0425 0,-0.0425 0,-0.0532 0,-0.0425 0,-0.0319 0,-0.0425 0,-0.0425 0,-0.0319 -0.0106,-0.0425 0,-0.0319 0,-0.0319 0,-0.0319 0,-0.0319 -0.0106,-0.0319 0,-0.0319 -0.0106,-0.0213 0,-0.0319 0,-0.0213 -0.0106,-0.0319 0,-0.0213 -0.0213,-0.0425 -0.0106,-0.0425 -0.0213,-0.0319 -0.0213,-0.0319 -0.0213,-0.0319 -0.0213,-0.0319 -0.0319,-0.0213 -0.0319,-0.0213 -0.0425,-0.0213 -0.0319,-0.0106 -0.0425,-0.0106 -0.0531,-0.0213 -0.0213,0 -0.0319,0 -0.0213,-0.0106 -0.0319,0 -0.0319,-0.0106 -0.0213,0 -0.0319,0 -0.0319,0 -0.0425,0 -0.0319,-0.0106 -0.0319,0 -0.0425,0 -0.0425,0 -0.0319,0 -0.0425,0 -0.0425,0 -0.0425,0 -0.0531,0 -0.0425,0 -0.0532,0 c -2.37047,2.33859 -5.72953,2.37048 -7.26024,2.37048 v 1.32874 c 0.90355,0 3.34843,0 5.36811,-1.03111 v 18.88937 c 0,1.23307 0,1.71142 -3.69921,1.71142 h -1.40315 v 1.32874 c 0.66969,-0.0319 5.21929,-0.14882 6.60118,-0.14882 1.14803,0 5.81457,0.11693 6.62244,0.14882 v -1.32874 h -1.40315 c -3.70984,0 -3.70984,-0.47835 -3.70984,-1.71142 z" />
      <path
         d="m 372.95078,321.31064 0,0 0,-0.0106 0,0 0,-0.0106 0,-0.0213 0,-0.0106 0,-0.0213 0,-0.0213 -0.0106,-0.0213 0,-0.0213 0,-0.0213 -0.0106,-0.0213 -0.0106,-0.0213 -0.0106,-0.0319 -0.0106,-0.0213 -0.0106,-0.0319 -0.0213,-0.0213 -0.0106,-0.0319 -0.0213,-0.0213 -0.0213,-0.0213 -0.0213,-0.0319 -0.0106,-0.0106 -0.0213,-0.0106 -0.0106,-0.0106 -0.0106,-0.0106 -0.0213,-0.0106 -0.0106,-0.0106 -0.0213,-0.0106 -0.0106,-0.0106 -0.0213,-0.0106 -0.0213,-0.0106 -0.0213,0 -0.0213,-0.0106 -0.0213,-0.0106 -0.0213,0 -0.0213,-0.0106 -0.0213,-0.0106 -0.0319,0 -0.0213,0 -0.0319,-0.0106 -0.0213,0 -0.0319,0 -0.0319,-0.0106 -0.0319,0 -0.0213,0 c -1.23307,0 -5.09173,0.43583 -6.46299,0.5315 -0.43583,0.0531 -1.02047,0.1063 -1.02047,1.06299 0,0.6378 0.48897,0.6378 1.28622,0.6378 2.54055,0 2.63622,0.36141 2.63622,0.89291 l -0.15945,1.06299 -7.6748,30.50787 c -0.22323,0.73347 -0.22323,0.8504 -0.22323,1.1693 0,1.21181 1.06299,1.47755 1.55197,1.47755 0.83976,0 1.69015,-0.63779 1.9559,-1.38189 l 0.99921,-4.01811 1.17992,-4.7622 c 0.30827,-1.16929 0.62717,-2.32795 0.89292,-3.56102 0.0957,-0.3189 0.53149,-2.06221 0.58464,-2.37048 0.14882,-0.48897 1.79646,-3.45472 3.60355,-4.88976 1.15866,-0.83976 2.8063,-1.83898 5.0811,-1.83898 2.2748,0 2.85945,1.79646 2.85945,3.69922 0,2.85945 -2.00906,8.64212 -3.29528,11.86299 -0.41456,1.23307 -0.68031,1.86023 -0.68031,2.92323 0,2.47677 1.8496,4.337 4.33701,4.337 4.98543,0 6.94133,-7.72795 6.94133,-8.15314 0,-0.5315 -0.47834,-0.5315 -0.62716,-0.5315 -0.5315,0 -0.5315,0.15945 -0.79725,0.95669 -0.79724,2.8063 -2.49803,6.55866 -5.4,6.55866 -0.91417,0 -1.27559,-0.53149 -1.27559,-1.7433 0,-1.32874 0.47835,-2.60433 0.9567,-3.763 0.85039,-2.2748 3.22086,-8.57834 3.22086,-11.65039 0,-3.43346 -2.12598,-5.65512 -6.09094,-5.65512 -3.3378,0 -5.87835,1.62638 -7.83425,4.06063 z"
         id="path9062"
         inkscape:connector-curvature="0"
         style="font-style:normal;font-variant:normal;font-weight:normal;font-stretch:normal;letter-spacing:normal;word-spacing:normal;text-anchor:start;fill:#000000;stroke:#000000;stroke-width:0;stroke-linecap:butt;stroke-linejoin:miter;stroke-miterlimit:10.43299961;stroke-opacity:1;stroke-dasharray:none;stroke-dashoffset:0" />
      <path
         d="m 400.65235,341.83702 0,-0.0425 0,-0.0425 0,-0.0532 0,-0.0425 0,-0.0319 0,-0.0425 0,-0.0425 0,-0.0319 -0.0106,-0.0425 0,-0.0319 0,-0.0319 0,-0.0319 0,-0.0319 -0.0106,-0.0319 0,-0.0319 -0.0106,-0.0213 0,-0.0319 0,-0.0213 -0.0106,-0.0319 0,-0.0213 -0.0213,-0.0425 -0.0106,-0.0425 -0.0213,-0.0319 -0.0213,-0.0319 -0.0213,-0.0319 -0.0213,-0.0319 -0.0319,-0.0213 -0.0319,-0.0213 -0.0425,-0.0213 -0.0319,-0.0106 -0.0425,-0.0106 -0.0531,-0.0213 -0.0213,0 -0.0319,0 -0.0213,-0.0106 -0.0319,0 -0.0319,-0.0106 -0.0213,0 -0.0319,0 -0.0319,0 -0.0425,0 -0.0319,-0.0106 -0.0319,0 -0.0425,0 -0.0425,0 -0.0319,0 -0.0425,0 -0.0425,0 -0.0425,0 -0.0531,0 -0.0425,0 -0.0532,0 c -2.37047,2.33859 -5.72953,2.37048 -7.26024,2.37048 v 1.32874 c 0.90355,0 3.34843,0 5.36811,-1.03111 v 18.88937 c 0,1.23307 0,1.71142 -3.69921,1.71142 h -1.40315 v 1.32874 c 0.66969,-0.0319 5.21929,-0.14882 6.60118,-0.14882 1.14803,0 5.81457,0.11693 6.62244,0.14882 v -1.32874 h -1.40315 c -3.70984,0 -3.70984,-0.47835 -3.70984,-1.71142 z"
         id="path9064"
         inkscape:connector-curvature="0"
         style="font-style:normal;font-variant:normal;font-weight:normal;font-stretch:normal;letter-spacing:normal;word-spacing:normal;text-anchor:start;fill:#000000;stroke:#000000;stroke-width:0;stroke-linecap:butt;stroke-linejoin:miter;stroke-miterlimit:10.43299961;stroke-opacity:1;stroke-dasharray:none;stroke-dashoffset:0" />
    </g>
  </g>
</svg>
