<?xml version="1.0" encoding="UTF-8" standalone="no"?>
<!-- Created with Inkscape (http://www.inkscape.org/) -->

<svg
   xmlns:dc="http://purl.org/dc/elements/1.1/"
   xmlns:cc="http://creativecommons.org/ns#"
   xmlns:rdf="http://www.w3.org/1999/02/22-rdf-syntax-ns#"
   xmlns:svg="http://www.w3.org/2000/svg"
   xmlns="http://www.w3.org/2000/svg"
   xmlns:sodipodi="http://sodipodi.sourceforge.net/DTD/sodipodi-0.dtd"
   xmlns:inkscape="http://www.inkscape.org/namespaces/inkscape"
   width="744.09448819"
   height="1052.3622047"
   id="svg7556"
   version="1.1"
   inkscape:version="0.48.4 r9939"
   sodipodi:docname="New document 24">
  <sodipodi:namedview
     id="base"
     pagecolor="#ffffff"
     bordercolor="#666666"
     borderopacity="1.0"
     inkscape:pageopacity="0.0"
     inkscape:pageshadow="2"
     inkscape:zoom="1.8101934"
     inkscape:cx="318.23714"
     inkscape:cy="502.36843"
     inkscape:document-units="px"
     inkscape:current-layer="layer1"
     showgrid="false"
     showguides="true"
     inkscape:guide-bbox="true"
     inkscape:window-width="1366"
     inkscape:window-height="718"
     inkscape:window-x="0"
     inkscape:window-y="0"
     inkscape:window-maximized="1">
    <sodipodi:guide
       id="guide8812"
       position="307.03125,476.17188"
       orientation="-0.27874758,0.9603644" />
  </sodipodi:namedview>
  <defs
     id="defs7558">
    <marker
       inkscape:stockid="Arrow2Lend"
       orient="auto"
       refY="0.0"
       refX="0.0"
       id="Arrow2Lend"
       style="overflow:visible;">
      <path
         id="path3801"
         style="fill-rule:evenodd;stroke-width:0.62500000;stroke-linejoin:round;"
         d="M 8.7185878,4.0337352 L -2.2072895,0.016013256 L 8.7185884,-4.0017078 C 6.9730900,-1.6296469 6.9831476,1.6157441 8.7185878,4.0337352 z "
         transform="scale(1.1) rotate(180) translate(1,0)" />
    </marker>
    <marker
       style="overflow:visible;"
       id="Arrow1Lend"
       refX="0.0"
       refY="0.0"
       orient="auto"
       inkscape:stockid="Arrow1Lend">
      <path
         transform="scale(0.8) rotate(180) translate(12.5,0)"
         style="fill-rule:evenodd;stroke:#000000;stroke-width:1.0pt;"
         d="M 0.0,0.0 L 5.0,-5.0 L -12.5,0.0 L 5.0,5.0 L 0.0,0.0 z "
         id="path3783" />
    </marker>
  </defs>
  <metadata
     id="metadata7561">
    <rdf:RDF>
      <cc:Work
         rdf:about="">
        <dc:format>image/svg+xml</dc:format>
        <dc:type
           rdf:resource="http://purl.org/dc/dcmitype/StillImage" />
        <dc:title></dc:title>
      </cc:Work>
    </rdf:RDF>
  </metadata>
  <g
     id="layer1"
     inkscape:groupmode="layer"
     inkscape:label="Layer 1">
    <path
       sodipodi:nodetypes="cccc"
       inkscape:connector-curvature="0"
       id="path7564"
       d="m 420.25254,621.62438 -57.3954,-126.40506 70.35715,85.71429 z"
       style="fill:none;stroke:#000000;stroke-width:0.5;stroke-linecap:butt;stroke-linejoin:round;stroke-opacity:1;stroke-miterlimit:4;stroke-dasharray:none" />
    <path
       sodipodi:nodetypes="ccc"
       inkscape:connector-curvature="0"
       id="path7566"
       d="m 420.25254,621.6479 -123.08988,0.72232 65.71429,-127.14285"
       style="fill:none;stroke:#000000;stroke-width:0.5;stroke-linecap:butt;stroke-linejoin:round;stroke-opacity:1;stroke-miterlimit:4;stroke-dasharray:none" />
    <path
       sodipodi:nodetypes="cc"
       inkscape:connector-curvature="0"
       id="path7568"
       d="M 297.32143,622.00504 432.5,580.93361"
       style="fill:none;stroke:#000000;stroke-width:0.5;stroke-linecap:butt;stroke-linejoin:miter;stroke-miterlimit:4;stroke-opacity:1;stroke-dasharray:4,4;stroke-dashoffset:0" />
    <path
       sodipodi:nodetypes="cc"
       inkscape:connector-curvature="0"
       id="path8078"
       d="m 348.52642,564.14625 49.29144,-14.30693"
       style="fill:none;stroke:#000000;stroke-width:0.5;stroke-linecap:butt;stroke-linejoin:miter;stroke-miterlimit:4;stroke-opacity:1;stroke-dasharray:4, 4;stroke-dashoffset:0;marker-start:none;marker-end:none" />
    <path
       sodipodi:nodetypes="cc"
       inkscape:connector-curvature="0"
       id="path8444"
       d="m 249.88679,592.77659 95.56235,-27.73715"
       style="fill:none;stroke:#000000;stroke-width:0.5;stroke-linecap:butt;stroke-linejoin:miter;stroke-miterlimit:4;stroke-opacity:1;stroke-dasharray:none" />
    <path
       sodipodi:nodetypes="cc"
       inkscape:connector-curvature="0"
       id="path8446"
       d="m 397.78882,549.84775 50.24967,-14.58506"
       style="fill:none;stroke:#000000;stroke-width:0.5;stroke-linecap:butt;stroke-linejoin:miter;stroke-miterlimit:4;stroke-opacity:1;stroke-dasharray:none;marker-end:url(#Arrow1Lend)" />
    <path
       id="path8831"
       d="m 449.31601,525.35089 h -0.82882 c -0.0354,0.25148 -0.1771,0.99175 -0.30107,1.30698 -0.0885,0.23377 -0.15939,0.41087 -1.21489,0.41087 h -1.27511 c 0.37191,-0.79694 0.86424,-1.41679 1.41324,-2.10393 0.98821,-1.26802 1.97642,-2.53959 1.97642,-4.1441 0,-1.91266 -1.59034,-4.23619 -6.1949,-4.23619 -4.60456,0 -6.19136,2.32353 -6.19136,4.23619 0,1.61868 1.00592,2.89379 1.97642,4.10868 0.61984,0.7934 1.06259,1.39554 1.4097,2.13935 h -1.26802 c -1.04134,0 -1.11218,-0.1771 -1.20073,-0.35419 -0.12043,-0.32233 -0.28336,-1.18657 -0.32232,-1.36366 h -0.82174 l 0.65173,3.53134 h 3.37195 c 0.38607,0 0.56317,0 0.56317,-0.47462 0,-1.23615 -0.53129,-2.86192 -0.79694,-3.63761 -0.46045,-1.39553 -0.86424,-2.66001 -0.86424,-3.94929 0,-0.69423 0.0885,-1.94454 0.95279,-2.7344 0.86424,-0.78277 2.01538,-0.87132 2.53959,-0.87132 0.92091,0 1.92683,0.26564 2.56439,0.9032 0.52421,0.51004 0.93508,1.28927 0.93508,2.70252 0,1.2326 -0.37191,2.43333 -0.81466,3.74032 -0.33648,1.0555 -0.84653,2.61043 -0.84653,3.84658 0,0.47462 0.1771,0.47462 0.56317,0.47462 h 3.37196 z"
       inkscape:connector-curvature="0"
       style="font-style:normal;font-variant:normal;font-weight:normal;font-stretch:normal;letter-spacing:normal;word-spacing:normal;text-anchor:start;fill:#000000;stroke:#000000;stroke-width:0;stroke-linecap:butt;stroke-linejoin:miter;stroke-miterlimit:10.43299961;stroke-opacity:1;stroke-dasharray:none;stroke-dashoffset:0" />
    <path
       style="fill:none;stroke:#000000;stroke-width:0.40000001;stroke-linecap:butt;stroke-linejoin:miter;stroke-miterlimit:4;stroke-opacity:1;stroke-dasharray:none;marker-end:url(#Arrow2Lend)"
       d="m 405.85938,505.09656 c 7.50849,9.3027 -0.69394,27.27477 -13.88513,38.0091"
       id="path8871"
       inkscape:connector-curvature="0"
       sodipodi:nodetypes="cc" />
    <path
       style="fill:none;stroke:#000000;stroke-width:0.40000001;stroke-linecap:butt;stroke-linejoin:miter;stroke-miterlimit:4;stroke-opacity:1;stroke-dasharray:none;marker-end:url(#Arrow1Lend)"
       d="m 307.42187,525.79969 c -0.45386,18.6778 25.52252,29.92579 45.4987,29.75452"
       id="path8873"
       inkscape:connector-curvature="0"
       sodipodi:nodetypes="cc" />
    <text
       xml:space="preserve"
       style="font-size:8px;font-style:normal;font-weight:normal;text-align:center;line-height:125%;letter-spacing:0px;word-spacing:0px;text-anchor:middle;fill:#000000;fill-opacity:1;stroke:none;font-family:Sans"
       x="306.19141"
       y="507.44031"
       id="text9425"
       sodipodi:linespacing="125%"><tspan
         sodipodi:role="line"
         x="306.19141"
         y="507.44031"
         id="tspan9429">входная</tspan><tspan
         sodipodi:role="line"
         x="306.19141"
         y="517.44031"
         id="tspan9433">грань</tspan></text>
    <text
       sodipodi:linespacing="125%"
       id="text9435"
       y="489.86218"
       x="405.41016"
       style="font-size:8px;font-style:normal;font-weight:normal;text-align:center;line-height:125%;letter-spacing:0px;word-spacing:0px;text-anchor:middle;fill:#000000;fill-opacity:1;stroke:none;font-family:Sans"
       xml:space="preserve"><tspan
         id="tspan9437"
         y="489.86218"
         x="405.41016"
         sodipodi:role="line">выходная</tspan><tspan
         id="tspan9439"
         y="499.86218"
         x="405.41016"
         sodipodi:role="line">грань</tspan></text>
  </g>
</svg>
